# xmcd
#
# Track frame offsets:
#	150
#	12872
#	29523
#	45766
#	60748
#	80312
#	95862
#	114584
#	129179
#	147489
#
# Disc length: 2147 seconds
#
# Revision: 0
# Processed by: cddbd v1.5.2PL0 Copyright (c) Steve Scherf et al.
# Submitted via: EasyCDDAExtractor 2010.6.0.0
#
DISCID=7d08610a
DTITLE=Drvenjaki - Drvenjaki 3
DYEAR=1900
DGENRE=
TTITLE0=Pijanica
TTITLE1=Skitnica
TTITLE2=Nisam bogat
TTITLE3=Nevjernica
TTITLE4=Plavoj ženi
TTITLE5=Pčelica
TTITLE6=Život kratko traje
TTITLE7=Drmeš
TTITLE8=Ti nisi htjela svatove
TTITLE9=Prvi puta volim
EXTD=
EXTT0=
EXTT1=
EXTT2=
EXTT3=
EXTT4=
EXTT5=
EXTT6=
EXTT7=
EXTT8=
EXTT9=
PLAYORDER=
